<?xml version="1.0" encoding="utf-8"?>
<!-- Generator: Adobe Illustrator 18.1.1, SVG Export Plug-In . SVG Version: 6.00 Build 0)  -->
<svg version="1.1" id="Layer_1" xmlns="http://www.w3.org/2000/svg" xmlns:xlink="http://www.w3.org/1999/xlink" x="0px" y="0px"
	 viewBox="0 0 300 300" style="enable-background:new 0 0 300 300;" xml:space="preserve">
<style type="text/css">
	.st0{fill:#ED3224;}
	.st1{fill:#F18720;}
	.st2{fill:#65BBD7;}
	.st3{fill:#77C052;}
</style>
<g>
	<path class="st2" d="M222,59.9l-34.8-15.5l-21.5,5c-1.3,0.3-2.1,1.6-1.8,2.8c0.3,1.3,1.6,2.1,2.8,1.8l20.4-4.7l32.9,14.9
		c0.3,0.1,0.6,0.2,1,0.2c0.9,0,1.8-0.5,2.2-1.4C223.7,61.8,223.2,60.4,222,59.9z"/>
	<path class="st2" d="M217.1,76.6l-2.4-1V63.7l-27.5-12.4l-5.2,1.2v12l-4.9,1.2v-12l-23.3,5.4l-10.2-4.6l-21.5,5
		c-1.3,0.3-2.1,1.6-1.8,2.8c0.3,1.1,1.2,1.8,2.3,1.8c0.2,0,0.4,0,0.5-0.1l15.2-3.5l5.2-1.2l9.9,4.6l18.6-4.4v7.2l-3.7,0.9
		c-1.3,0.3-2.1,1.6-1.8,2.8c0.3,1.3,1.6,2.1,2.8,1.8l17.8-4.1l27.5,12.6l0.4,0.2c0.3,0.1,0.6,0.2,1,0.2c0.9,0,1.8-0.5,2.2-1.4
		C218.8,78.6,218.2,77.2,217.1,76.6z"/>
	<path class="st2" d="M150,0C67.2,0,0,67.2,0,150c0,82.8,67.2,150,150,150c82.8,0,150-67.2,150-150C300,67.2,232.8,0,150,0z
		 M14.1,158.2c32.2-11.9,55.4-29.5,70.7-53.8v52.9c-20.8,8.7-43.9,15.3-68.3,19.4C15.2,170.7,14.4,164.5,14.1,158.2z M103.4,255.1
		h-8.9l-16.4-21h-0.1v21h-8.9v-34.3h8.9l16.3,21h0.1v-21h8.9V255.1z M127.1,238.6v16.5h-8.9v-16.5l-12.7-17.9h10.7l6.4,9.3l6.4-9.3
		h10.7L127.1,238.6z M163.4,261.5c0,1.4-1.1,2.5-2.5,2.5c-1.4,0-2.5-1.1-2.5-2.5v-47.2c0-1.4,1.1-2.5,2.5-2.5c1.4,0,2.5,1.1,2.5,2.5
		V261.5z M172.1,182.8c-1.6-0.1-3.3-0.2-5-0.3c0-15.4,0-34.3,0-47c0-11.9,2.4-20,5-25.2V182.8z M182,183.6c-1.6-0.1-3.3-0.3-4.9-0.4
		V99.5c-1.6,2.3-10.1,14-23.6,26.3c-4.1,3.7-9.8,8.3-15.2,12.2v44.3c-1.7,0.1-3.3,0.1-4.9,0.2v-41c-1.6,1.1-3.3,2.2-5,3.3v38
		c-1.7,0.1-3.3,0.2-4.9,0.3c0-11.2,0-24.3,0-35.2c-0.3,0.2-0.6,0.4-0.9,0.6c-8.8,5.3-18.1,10.1-27.9,14.5v23.4
		c-1.7,0.3-3.3,0.5-4.9,0.8v-22.1c-1.6,0.7-3.3,1.4-5,2.1v20.9c-22.5,4.3-42.5,10.7-58.6,18.8c-3.8-8.4-6.8-17.1-8.9-26.1
		C94.5,168.6,157.9,130.3,182,82V183.6z M124,136.8c0.8-7.2,2.6-12.5,4.5-16.3v13.3C126.9,134.8,125.5,135.8,124,136.8z
		 M197.2,255.1h-8.9v-26.8h-4.9v-7.6h13.9V255.1z M228.9,251.3c-1.3,1.8-2.9,3.1-4.9,3.9c-2,0.8-4.2,1.3-6.5,1.3
		c-4.3,0-7.7-1.3-10.3-3.9c-1.1-1.1-2-2.5-2.8-4.1c-0.8-1.6-1.1-3.1-1.1-4.6h9.1c0,1.4,0.4,2.6,1.3,3.5c0.9,0.9,2,1.4,3.4,1.4
		c1.4,0,2.5-0.4,3.4-1.3c0.9-0.8,1.3-2,1.3-3.3c0-1.3-0.5-2.4-1.4-3.3c-0.9-0.9-2-1.3-3.3-1.3c-0.4,0-0.9,0.1-1.5,0.3v-6h0.9
		c1.2,0,2.1-0.3,2.8-1c0.7-0.7,1.1-1.6,1.1-2.8c0-1-0.3-1.9-1-2.5c-0.7-0.6-1.5-1-2.5-1c-1.1,0-2,0.4-2.7,1.1c-0.7,0.7-1,1.7-1,2.8
		h-8.3c0.3-3.4,1.7-6.2,4-8.3c2.2-2,5.1-3,8.7-3c3.2,0,5.8,0.9,7.9,2.6c2.1,1.8,3.1,4.2,3.1,7.3c0,1.5-0.3,2.8-0.9,4.1
		c-0.6,1.3-1.5,2.3-2.7,2.9c1.7,0.5,3.1,1.5,4.1,3.3c1,1.7,1.5,3.5,1.5,5.4C230.9,247.5,230.2,249.5,228.9,251.3z M273.8,206.9
		c-16.2-8.1-36.3-14.6-59.1-18.9v-27.6c19.9,11.6,44.4,19.6,67.8,21.2C280.4,190.3,277.5,198.8,273.8,206.9z M283.5,177
		c-23.5-1.6-48.8-10.1-68.8-22.2v-59c14.2,25.8,41.6,50.3,71.2,63.1C285.5,165,284.7,171,283.5,177z M214.7,85v-2.3l-1.1-0.5
		c0,0,0-0.1,0-0.1l-0.1,0l-26.2-11.9l-5.2,1.2v1.1c-1.5,3.4-3.1,6.8-4.9,10.1V72.5L153.5,78V66l-9.9-4.5l-5.2,1.2v12.1l-4.9,1.2
		V63.9l-23.3,5.4l-10.2-4.5l-21.5,5c-1.3,0.3-2.1,1.6-1.8,2.8c0.3,1.1,1.2,1.8,2.3,1.8c0.2,0,0.4,0,0.5-0.1l20.4-4.8l9.9,4.6
		l18.6-4.3v7.3l-3.4,0.8c-1.3,0.3-2.1,1.6-1.7,2.8c0.3,1.3,1.6,2.1,2.8,1.7l17.5-4.2l9.9,4.5l18.6-4.3v12.4c-1.6,2.4-3.2,4.7-5,7
		c-1.7-2.5-3.1-3.6-3.1-3.6s-5.9,4.6-8.8,17.3c-0.5,0.6-1.1,1.1-1.7,1.7V84.8l-9.9-4.5l-5.2,1.2v45c-1.6,1.3-3.3,2.5-4.9,3.7V82.7
		l-23.6,5.5V76.4l-9.9-4.7l-5.2,1.2v12l-4.9,1.2V74.1l-5,1.2v12.1l-3.4,0.8c-1.3,0.3-2,1.6-1.7,2.8c0.3,1.3,1.6,2.1,2.8,1.7
		l17.5-4.2l9.9,4.5l18.6-4.3v29.9c-3.1-10.4-8-14.3-8-14.3s-7.3,5.7-9.7,21.9c-0.2,1.3-0.4,1.6-0.6,1.5c-0.2-0.3-0.2-1.6-0.2-1.6
		v-31l-9.9-4.5l-5.2,1.2V153c-1.6,0.8-3.3,1.5-4.9,2.3V93.1l-5,1.2v0.8c-14.5,26.9-37.1,45.5-70.9,58.2c0-1.1,0-2.2,0-3.3
		c0-36.4,14.2-70.6,39.9-96.3C79.4,28,113.6,13.8,150,13.8c36.4,0,70.6,14.2,96.3,39.9c25.7,25.7,39.9,59.9,39.9,96.3
		c0,1.3,0,2.6-0.1,3.9C254.8,139.8,226.3,112.4,214.7,85z"/>
</g>
</svg>
