<?xml version="1.0" encoding="utf-8"?>
<!-- Generator: Adobe Illustrator 18.1.1, SVG Export Plug-In . SVG Version: 6.00 Build 0)  -->
<svg version="1.1" id="Layer_1" xmlns="http://www.w3.org/2000/svg" xmlns:xlink="http://www.w3.org/1999/xlink" x="0px" y="0px"
	 viewBox="0 0 300 300" style="enable-background:new 0 0 300 300;" xml:space="preserve">
<style type="text/css">
	.st0{fill:#ED3224;}
	.st1{fill:#F18720;}
	.st2{fill:#65BBD7;}
	.st3{fill:#77C052;}
</style>
<g>
	<path class="st3" d="M150,0C67.2,0,0,67.2,0,150s67.2,150,150,150s150-67.2,150-150S232.8,0,150,0z M278.8,105.6
		c3.5,10.2,5.9,20.9,6.9,32h-83.1c-8.9,0-16.2-7.3-16.2-16.2c0-8.9,7.3-16.2,16.2-16.2c2.2,0,4.4,0.4,6.4,1.3c0.1,4.1,1,8,2.6,11.7
		c0.4,0.9,1.3,1.4,2.2,1.4c0.3,0,0.7-0.1,1-0.2c1.2-0.5,1.7-1.9,1.2-3.1c-1.5-3.2-2.2-6.7-2.2-10.2c0-13.5,11-24.6,24.6-24.6
		c9.5,0,17.9,5.3,22,13.7c-5.6,1.5-10.4,5.4-13.1,10.8c-0.6,1.2-0.1,2.6,1.1,3.2c1.2,0.6,2.6,0.1,3.2-1.1c2.8-5.5,8.3-9,14.5-9
		C271.1,99.2,275.8,101.7,278.8,105.6z M21.2,105.6c3-3.9,7.6-6.4,12.9-6.4c6.2,0,11.7,3.4,14.5,9c0.6,1.2,2,1.6,3.2,1.1
		c1.2-0.6,1.6-2,1.1-3.2c-2.7-5.4-7.5-9.3-13.1-10.8c4.1-8.4,12.6-13.7,22-13.7c13.5,0,24.6,11,24.6,24.6c0,3.6-0.7,7-2.2,10.2
		c-0.5,1.2,0,2.6,1.2,3.1c0.3,0.1,0.7,0.2,1,0.2c0.9,0,1.8-0.5,2.2-1.4c1.7-3.7,2.6-7.6,2.6-11.7c2-0.9,4.2-1.3,6.4-1.3
		c8.9,0,16.2,7.3,16.2,16.2c0,8.9-7.3,16.2-16.2,16.2H14.4C15.4,126.5,17.7,115.7,21.2,105.6z M93.9,253.1h-9.8v-37.9h9.8V253.1z
		 M84.1,163.8V188h-7.5v-10.2H68v9.4h-5.3v-14.5H46.9v20.7h-7.2v-8.9H29.4v20.7c-1.1,0.5-2.3,0.9-3.4,1.4
		c-7.9-17.2-12.2-36.3-12.2-56.5c0-2.6,0.1-5.1,0.2-7.7h83.4c7.2,0,13.5-3.6,17.3-9.2v30.7v8.1v13.6c-2.5,0.2-5.1,0.5-7.6,0.8v-5.6
		H98v-16.8H84.1z M124.8,253.1h-21.7v-37.9h9.8v29.5h11.8V253.1z M126.4,172l-4,0.9v4.5l4-0.9v2.9l-4,0.9v4.6
		c-0.9,0.1-1.8,0.1-2.7,0.2v-14.4l6.7-1.5V172z M126.4,124.3l-4,0.9v4.5l4-0.9v2.9l-4,0.9v4.5l4-0.9v2.9l-4,0.9v4.5l4-0.9v2.9
		l-4,0.9v4.5l4-0.9v2.9l-4,0.9v4.5l4-0.9v2.9l-6.7,1.5V123l6.7-1.5V124.3z M141.6,184c-0.9,0-1.8,0-2.7,0.1v-2.8l-4.7,1.1v1.9
		c-0.9,0-1.8,0.1-2.7,0.1v-18.9l10.2-2.4V184z M141.6,155l-10.2,2.4v-39.7l10.2-2.4V155z M141.6,107.3l-10.2,2.4V70l10.2-2.4V107.3z
		 M148,257.8c0,1.4-1.1,2.5-2.5,2.5c-1.4,0-2.5-1.1-2.5-2.5v-47.2c0-1.4,1.1-2.5,2.5-2.5c1.4,0,2.5,1.1,2.5,2.5V257.8z M157.6,184
		c-2.5,0-5-0.1-7.6-0.1c-0.9,0-1.7,0-2.6,0v-22.2l10.2-2.4V184z M178.5,253.1h-9.8v-29.5h-5.4v-8.3h15.3V253.1z M160.7,151.1v-36.5
		l10.2-2.4v45L160.7,151.1z M174.7,107C174.6,107,174.6,107,174.7,107c-0.1-0.1-0.2-0.1-0.3-0.1c0,0-0.1,0-0.1,0
		c-0.1,0-0.1,0-0.2-0.1c0,0-0.1,0-0.1,0c-0.1,0-0.1,0-0.2,0c0,0-0.1,0-0.1,0c-0.1,0-0.1,0-0.2,0c0,0-0.1,0-0.1,0c-0.1,0-0.2,0-0.3,0
		c0,0,0,0,0,0c-0.1,0-0.2,0-0.3,0l-7.8,1.8V72.7c0-0.9-0.5-1.7-1.2-2.1l-11.4-6.9V32.1c0-1.4-1.1-2.5-2.5-2.5
		c-1.4,0-2.5,1.1-2.5,2.5v28.5l-2-1.2c0,0,0,0-0.1,0c-0.1,0-0.1-0.1-0.2-0.1c0,0-0.1,0-0.1,0c-0.1,0-0.1,0-0.2-0.1c0,0-0.1,0-0.1,0
		c-0.1,0-0.1,0-0.2,0c0,0-0.1,0-0.1,0c-0.1,0-0.1,0-0.2,0c0,0-0.1,0-0.1,0c-0.2,0-0.4,0-0.6,0.1l-2.7,0.6v-33c0-1.4-1.1-2.5-2.5-2.5
		c-1.4,0-2.5,1.1-2.5,2.5v34.2l-7.4,1.7c-1.1,0.3-1.9,1.3-1.9,2.4v51.3l-8.3,1.9c-1.5-10-10.2-17.7-20.7-17.7
		c-2.3,0-4.6,0.4-6.8,1.1c-2.2-14-14.3-24.8-29-24.8c-11.8,0-22.3,6.9-26.9,17.7c-0.2,0-0.5,0-0.7,0c-3.4,0-6.6,0.8-9.5,2.3
		C45.4,48,93.7,13.8,150,13.8S254.6,48,275.4,96.7c-2.8-1.5-6.1-2.3-9.5-2.3c-0.2,0-0.5,0-0.7,0c-4.6-10.8-15.1-17.7-26.9-17.7
		c-14.6,0-26.8,10.8-29,24.8c-2.2-0.7-4.5-1.1-6.8-1.1c-8.4,0-15.6,4.9-18.9,12L174.7,107z M211.5,251.5c-2.6,2.1-6.3,3.2-11.1,3.2
		c-4.7,0-8.8-1.1-12.4-3.4l1.5-9.3c3.2,2.9,6.8,4.4,10.5,4.4c1.6,0,3-0.5,4.2-1.6c1.2-1.1,1.8-2.4,1.8-4c0-2.1-0.8-3.7-2.5-4.8
		c-1.7-1.1-3.6-1.7-5.8-1.7c-2.6,0-5,0.5-7.2,1.6l3.3-20.5h19.7v8.3h-13.1l-0.7,4.3l3.1-0.3c3.8-0.3,7,0.9,9.6,3.6
		c2.6,2.7,3.8,6,3.8,10C216.4,245.4,214.8,248.8,211.5,251.5z M270.9,205.2v-20.9h-10.2v8.9h-7.2v-20.7h-15.8v14.5h-5.3v-9.4h-8.6
		V188h-7.5v-24.2h-13.8v16.8h-9.2v5.6c-2.6-0.3-5.3-0.6-7.9-0.8v-52.3c3.8,5.5,10.1,9.2,17.3,9.2H286c0.1,2.5,0.2,5.1,0.2,7.7
		c0,20.2-4.4,39.3-12.2,56.5C272.9,206.1,271.9,205.7,270.9,205.2z"/>
	<polygon class="st3" points="138.9,133.6 134.1,134.7 134.1,139.2 138.9,138.1 	"/>
	<polygon class="st3" points="138.9,140.9 134.1,142 134.1,146.5 138.9,145.4 	"/>
	<polygon class="st3" points="138.9,126.2 134.1,127.3 134.1,131.8 138.9,130.7 	"/>
	<polygon class="st3" points="138.9,148.3 134.1,149.4 134.1,153.9 138.9,152.8 	"/>
	<polygon class="st3" points="138.9,118.8 134.1,119.9 134.1,124.4 138.9,123.3 	"/>
	<polygon class="st3" points="163.4,136.1 168.2,135 168.2,130.5 163.4,131.6 	"/>
	<polygon class="st3" points="163.4,143.5 168.2,142.4 168.2,137.9 163.4,139 	"/>
	<polygon class="st3" points="163.4,128.8 168.2,127.7 168.2,123.2 163.4,124.3 	"/>
	<polygon class="st3" points="163.4,150.8 168.2,149.8 168.2,145.3 163.4,146.4 	"/>
	<polygon class="st3" points="163.4,121.4 168.2,120.3 168.2,115.8 163.4,116.9 	"/>
	<polygon class="st3" points="154.9,177.6 150.1,178.7 150.1,183.2 154.9,182.1 	"/>
	<polygon class="st3" points="154.9,170.2 150.1,171.3 150.1,175.8 154.9,174.7 	"/>
	<polygon class="st3" points="154.9,162.9 150.1,164 150.1,168.5 154.9,167.4 	"/>
	<polygon class="st3" points="138.9,173.9 134.1,175 134.1,179.5 138.9,178.4 	"/>
	<polygon class="st3" points="138.9,166.6 134.1,167.7 134.1,172.2 138.9,171.1 	"/>
	<polygon class="st3" points="138.9,85.8 134.1,86.9 134.1,91.4 138.9,90.3 	"/>
	<polygon class="st3" points="138.9,93.2 134.1,94.3 134.1,98.8 138.9,97.7 	"/>
	<polygon class="st3" points="138.9,78.5 134.1,79.6 134.1,84.1 138.9,83 	"/>
	<polygon class="st3" points="138.9,100.6 134.1,101.7 134.1,106.2 138.9,105.1 	"/>
	<polygon class="st3" points="138.9,71.1 134.1,72.2 134.1,76.7 138.9,75.6 	"/>
</g>
</svg>
