<?xml version="1.0" encoding="UTF-8" standalone="no"?><!DOCTYPE svg PUBLIC "-//W3C//DTD SVG 1.1//EN" "http://www.w3.org/Graphics/SVG/1.1/DTD/svg11.dtd"><svg width="100%" height="100%" viewBox="0 0 300 300" version="1.1" xmlns="http://www.w3.org/2000/svg" xmlns:xlink="http://www.w3.org/1999/xlink" xml:space="preserve" style="fill-rule:evenodd;clip-rule:evenodd;stroke-linejoin:round;stroke-miterlimit:1.41421;"><g><g><path d="M80.595,226.616l-1.475,0l0,8.397l1.475,0c3.172,0 6.298,0 6.298,-4.109c0,-4.243 -2.904,-4.288 -6.298,-4.288" style="fill:#ffc20d;fill-rule:nonzero;"/><path d="M218.124,235.902c-1.494,0 -2.776,0.528 -3.844,1.582c-1.07,1.054 -1.603,2.329 -1.603,3.822c0,1.524 0.533,2.82 1.603,3.889c1.068,1.069 2.35,1.604 3.844,1.604c1.495,0 2.753,-0.535 3.779,-1.604c1.023,-1.069 1.539,-2.365 1.539,-3.889c0,-1.493 -0.516,-2.768 -1.539,-3.822c-1.026,-1.054 -2.284,-1.582 -3.779,-1.582" style="fill:#ffc20d;fill-rule:nonzero;"/><path d="M20.889,135.003l0,7.597l6.089,0l0,-6.055l0,-1.542l0,-6.057l-6.089,0l0,6.057Z" style="fill:#ffc20d;fill-rule:nonzero;"/><path d="M31.841,135.003l0,7.597l6.09,0l0,-6.055l0,-1.542l0,-6.057l-6.09,0l0,6.057Z" style="fill:#ffc20d;fill-rule:nonzero;"/><path d="M42.792,135.003l0,7.597l6.089,0l0,-6.055l0,-1.542l0,-6.057l-6.089,0l0,6.057Z" style="fill:#ffc20d;fill-rule:nonzero;"/><path d="M59.831,136.545l0,-1.543l0,-6.056l-6.089,0l0,13.655l6.089,0l0,-6.056Z" style="fill:#ffc20d;fill-rule:nonzero;"/><path d="M278.681,136.545l0,-1.543l0,-6.056l-6.09,0l0,13.655l6.09,0l0,-6.056Z" style="fill:#ffc20d;fill-rule:nonzero;"/><path d="M234.878,136.545l0,-1.543l0,-6.056l-6.09,0l0,13.655l6.09,0l0,-6.056Z" style="fill:#ffc20d;fill-rule:nonzero;"/><path d="M245.828,136.545l0,-1.543l0,-6.056l-6.09,0l0,13.655l6.09,0l0,-6.056Z" style="fill:#ffc20d;fill-rule:nonzero;"/><path d="M223.925,136.545l0,-1.543l0,-6.056l-6.09,0l0,13.655l6.09,0l0,-6.056Z" style="fill:#ffc20d;fill-rule:nonzero;"/><path d="M81.734,136.545l0,-1.543l0,-6.056l-6.089,0l0,13.655l6.089,0l0,-6.056Z" style="fill:#ffc20d;fill-rule:nonzero;"/><path d="M70.784,136.545l0,-1.543l0,-6.056l-6.089,0l0,13.655l6.089,0l0,-6.056Z" style="fill:#ffc20d;fill-rule:nonzero;"/><path d="M256.778,136.545l0,-1.543l0,-6.056l-6.089,0l0,13.655l6.089,0l0,-6.056Z" style="fill:#ffc20d;fill-rule:nonzero;"/><path d="M267.731,136.545l0,-1.543l0,-6.056l-6.09,0l0,13.655l6.09,0l0,-6.056Z" style="fill:#ffc20d;fill-rule:nonzero;"/><path d="M228.273,250.225c-2.754,2.226 -6.121,3.339 -10.105,3.339c-3.896,0 -7.043,-0.952 -9.445,-2.856c-1.346,-1.114 -2.424,-2.483 -3.231,-4.108c-0.806,-1.625 -1.208,-3.286 -1.208,-4.987c0,-4.158 1.774,-8.552 5.318,-13.181l7.115,-9.313l9.756,0l-9.404,11.203l0.09,0.088c1.522,-0.673 3.058,-1.01 4.611,-1.01c3.136,0 5.691,1.149 7.668,3.448c1.977,2.301 2.966,5.031 2.966,8.194c0,3.896 -1.377,6.957 -4.131,9.183M197.074,252.245l-8.611,0l0,-25.833l-4.744,0l0,-7.293l13.355,0l0,33.126ZM170.43,258.43c0,1.311 -1.062,2.377 -2.376,2.377c-1.312,0 -2.377,-1.066 -2.377,-2.377l0,-44.178c0,-1.313 1.065,-2.376 2.377,-2.376c1.314,0 2.376,1.063 2.376,2.376l0,44.178ZM154.995,253.236l-19.25,0l0,-33.677l8.754,0l0,26.263l10.496,0l0,7.414ZM130.033,253.236l-8.753,0l0,-13.802l-12.642,0l0,13.802l-8.754,0l0,-33.677l8.754,0l0,12.997l12.642,0l0,-12.997l8.753,0l0,33.677ZM84.078,242.07l-4.958,0l0,11.166l-8.754,0l0,-33.677l13.401,0c7.234,0 12.237,3.35 12.237,11.077c0,7.95 -4.287,11.434 -11.926,11.434M150.472,13.813c59.731,0.201 110.407,38.859 128.562,92.508l-68.956,0l0,-18.141l2.503,0l0,-11.256l0.568,0c0.061,0 0.119,-0.013 0.179,-0.017c0.077,-0.006 0.153,-0.009 0.228,-0.021c0.026,-0.006 0.05,-0.007 0.075,-0.012c0.059,-0.01 0.113,-0.032 0.17,-0.048c0.069,-0.017 0.14,-0.034 0.207,-0.059c0.025,-0.008 0.048,-0.017 0.071,-0.026c0.063,-0.026 0.12,-0.058 0.181,-0.088c0.055,-0.028 0.114,-0.053 0.169,-0.084c0.02,-0.013 0.039,-0.028 0.06,-0.041c0.061,-0.039 0.116,-0.082 0.173,-0.125c0.068,-0.052 0.134,-0.103 0.196,-0.161c0.053,-0.05 0.1,-0.106 0.149,-0.16c0.034,-0.037 0.07,-0.068 0.101,-0.107c0.025,-0.03 0.044,-0.064 0.065,-0.095c0.041,-0.052 0.074,-0.108 0.107,-0.165c0.03,-0.046 0.06,-0.09 0.086,-0.139c0.019,-0.035 0.033,-0.072 0.05,-0.11c0.027,-0.055 0.048,-0.112 0.07,-0.17c0.02,-0.057 0.042,-0.114 0.06,-0.174c0.006,-0.018 0.016,-0.036 0.021,-0.058c0.006,-0.021 0.006,-0.044 0.011,-0.065c0.014,-0.052 0.023,-0.107 0.033,-0.161c0.004,-0.032 0.016,-0.061 0.02,-0.093c0.004,-0.031 0,-0.064 0.004,-0.095c0.005,-0.054 0.009,-0.108 0.011,-0.164c0,-0.023 0.006,-0.043 0.006,-0.066l0,-4.514c0,-1.382 -1.12,-2.504 -2.503,-2.504c-1.382,0 -2.502,1.122 -2.502,2.504l0,1.257l-58.175,-15.512l0,-5.328c0,-1.382 -1.12,-2.502 -2.502,-2.502c-1.383,0 -2.503,1.12 -2.503,2.502l0,5.328l-58.176,15.512l0,-1.257c0,-1.382 -1.121,-2.504 -2.504,-2.504c-1.381,0 -2.502,1.122 -2.502,2.504l0,4.514c0,0.047 0.011,0.091 0.012,0.137c0.005,0.063 0,0.124 0.009,0.188c0.004,0.032 0.016,0.061 0.021,0.093c0.012,0.073 0.029,0.144 0.048,0.214c0.023,0.084 0.046,0.165 0.077,0.245c0.025,0.069 0.054,0.134 0.085,0.2c0.037,0.075 0.076,0.148 0.119,0.218c0.038,0.064 0.079,0.125 0.12,0.183c0.049,0.065 0.099,0.126 0.153,0.184c0.05,0.055 0.099,0.111 0.155,0.162c0.057,0.054 0.119,0.103 0.181,0.151c0.061,0.046 0.119,0.092 0.183,0.133c0.069,0.044 0.142,0.079 0.214,0.116c0.064,0.033 0.128,0.069 0.196,0.097c0.086,0.034 0.18,0.058 0.27,0.082c0.06,0.018 0.117,0.04 0.179,0.051c0.156,0.031 0.317,0.05 0.48,0.05l0.569,0l0,11.256l2.461,0l0,18.141l-68.88,0c18.21,-54.056 69.317,-92.714 129.535,-92.508M254.193,183.642l-2.182,-4.256l30.995,0c-0.314,1.427 -0.656,2.845 -1.015,4.256l-27.798,0ZM258.944,192.906l-2.184,-4.259l23.859,0c-0.424,1.429 -0.861,2.85 -1.329,4.259l-20.346,0ZM218.022,188.647l19.787,0l0,4.259l-2.115,0c-5.436,-1.46 -11.348,-2.907 -17.672,-4.259M61.761,192.906l0,-4.259l20.757,0c-6.26,1.351 -12.114,2.796 -17.512,4.259l-3.245,0ZM42.731,199.774l24.8,-48.361l5.978,0l-23.355,45.877c-2.676,0.858 -5.152,1.691 -7.423,2.484M23.196,197.911l14.863,0l-2.182,4.255l-11.707,0c-0.329,-0.796 -0.659,-1.59 -0.974,-2.394l0,-1.861ZM19.382,188.647l23.428,0l-2.184,4.259l-19.916,0c-0.467,-1.409 -0.907,-2.83 -1.328,-4.259M16.999,179.386l30.559,0l-2.181,4.256l-27.365,0c-0.359,-1.411 -0.699,-2.829 -1.013,-4.256M14.654,165.117c-0.157,-1.413 -0.293,-2.83 -0.407,-4.256l42.812,0l-2.136,4.164l-0.142,0l0,0.092l-40.127,0ZM15.3,170.124l37.008,0l-2.183,4.256l-34.13,0c-0.255,-1.411 -0.484,-2.831 -0.695,-4.256M229.243,174.38l-158.914,0l0,-4.071l5.976,0l0,-0.185l146.959,0l0,0.185l5.979,0l0,4.071ZM232.132,179.48l1.287,0l0,4.162l-45.04,0c-12.046,-1.492 -24.93,-2.417 -38.378,-2.417c-13.343,0 -26.129,0.924 -38.087,2.417l-45.764,0l0,-4.162l3.791,0l0,-0.094l159.688,0l0,0.094l2.503,0ZM286.19,150c0,1.964 -0.053,3.912 -0.137,5.855l-46.108,0l-4.147,-8.086c-0.431,-0.84 -1.287,-1.362 -2.229,-1.362l-11.591,0c-0.871,0 -1.681,0.453 -2.135,1.195c-0.351,0.574 -0.447,1.257 -0.292,1.896c-0.046,0.191 -0.077,0.386 -0.077,0.582l0,5.775l-9.396,0l0,-33.115l73.381,0c1.791,8.809 2.731,17.924 2.731,27.26M284.7,170.124c-0.211,1.425 -0.442,2.845 -0.698,4.256l-34.558,0l-2.183,-4.256l37.439,0ZM244.647,165.025l-2.137,-4.164l43.25,0c-0.114,1.426 -0.248,2.843 -0.403,4.256l-40.568,0l0,-0.092l-0.142,0ZM223.264,165.117l-146.959,0l0,-4.257l146.959,0l0,4.257ZM100.754,155.855l-6.816,0l0.606,-67.675l5.603,0l0.607,67.675ZM115.737,155.855l-6.817,0l0.605,-67.675l5.606,0l0.606,67.675ZM130.718,155.855l-6.815,0l0.605,-67.675l5.605,0l0.605,67.675ZM145.701,155.855l-6.815,0l0.603,-67.67l5.608,0.225l0.604,67.445ZM160.685,155.855l-6.817,0l0.599,-67.069l5.619,0.225l0.599,66.844ZM175.666,155.855l-6.815,0l0.592,-66.468l5.63,0.225l0.593,66.243ZM190.649,155.855l-6.818,0l0.589,-65.867l5.641,0.227l0.588,65.64ZM205.633,155.855l-6.819,0l0.583,-65.266l5.653,0.227l0.583,65.039ZM105.894,71.917l44.076,-11.753l44.074,11.753l-10.852,0l-32.578,-8.687c-0.422,-0.113 -0.866,-0.113 -1.289,0l-32.578,8.687l-10.853,0ZM207.575,83.174l-115.214,0l0,-6.25l115.214,0l0,6.25ZM13.818,148.658c0.087,-8.875 1.023,-17.537 2.716,-25.918l73.283,0l0,33.115l-9.721,0l0,-5.775c0,-0.196 -0.031,-0.391 -0.078,-0.582c0.156,-0.639 0.06,-1.322 -0.292,-1.896c-0.453,-0.742 -1.264,-1.195 -2.134,-1.195l-11.592,0c-0.942,0 -1.797,0.522 -2.229,1.362l-4.146,8.086l-45.684,0c-0.101,-2.384 -0.146,-4.783 -0.123,-7.197M249.176,196.819l-23.116,-45.406l5.979,0l24.517,47.811c-2.266,-0.77 -4.734,-1.578 -7.38,-2.405M275.834,202.166l-11.018,0c-0.45,-0.168 -0.91,-0.338 -1.387,-0.515l-1.918,-3.74l14.865,0l0,2.913c-0.18,0.448 -0.359,0.897 -0.542,1.342M150.001,0c-82.844,0 -150.001,67.157 -150.001,150c0,82.841 67.157,149.999 150.001,149.999c82.842,0 149.999,-67.158 149.999,-149.999c0,-82.843 -67.157,-150 -149.999,-150" style="fill:#ffc20d;fill-rule:nonzero;"/></g></g></svg>