<?xml version="1.0" encoding="utf-8"?>
<!-- Generator: Adobe Illustrator 18.1.1, SVG Export Plug-In . SVG Version: 6.00 Build 0)  -->
<svg version="1.1" id="Layer_1" xmlns="http://www.w3.org/2000/svg" xmlns:xlink="http://www.w3.org/1999/xlink" x="0px" y="0px"
	 viewBox="0 0 300 300" style="enable-background:new 0 0 300 300;" xml:space="preserve">
<style type="text/css">
	.st0{fill:#FFFFFF;}
</style>
<path class="st0" d="M150,0C67.2,0,0,67.2,0,150c0,82.8,67.2,150,150,150c82.8,0,150-67.2,150-150C300,67.2,232.8,0,150,0z
	 M15.3,170.3c50.1-9.2,89.6-46.9,102.4-94.8v53.9c-25.6,28.3-60.5,48.1-99.7,54.3C16.9,179.3,16,174.8,15.3,170.3z M92.9,253.6
	c-2.8,2.4-6.6,3.4-10.3,3.4c-4.6,0-9-1.5-12.7-4.1l4-7.6c2.4,2.1,5.1,3.7,8.4,3.7c2.2,0,4.6-1.1,4.6-3.6c0-2.6-3.7-3.6-5.7-4.1
	c-5.9-1.7-9.8-3.2-9.8-10.2c0-7.3,5.2-12.1,12.5-12.1c3.6,0,8.1,1.1,11.3,3l-3.7,7.3c-1.7-1.4-3.9-2.4-6.2-2.4c-1.7,0-4,1-4,3
	c0,2.1,2.5,2.9,4.2,3.4l2.4,0.7c5,1.5,8.9,4,8.9,9.9C96.7,247.5,95.8,251.2,92.9,253.6z M124.5,227.9h-11.4v6h10.3v8h-10.3v14.2
	h-9.4v-36.2h20.8V227.9z M129.7,182.8c-1.2,0.1-2.5,0.1-3.7,0.2v-9.8l3.7-1.1V182.8z M129.7,163.4l-3.7,1.1v-29.1l3.7-1.1V163.4z
	 M151.7,261.8c0,1.4-1.1,2.5-2.5,2.5c-1.4,0-2.5-1.1-2.5-2.5v-48.1c0-1.4,1.1-2.5,2.5-2.5c1.4,0,2.5,1.1,2.5,2.5V261.8z
	 M160.8,182.4c-3.7-0.1-7.3-0.2-11-0.2c-5.1,0-10.1,0.1-15.1,0.3v-12l26.1-7.9V182.4z M160.8,154l-26.1,7.9v-29.1l26.1-7.9V154z
	 M160.8,77.3c-0.1,0.4-0.3,0.8-0.4,1.2c-1.2,3.3-2.6,6.6-4,9.9l4.4-1.3v29.1l-25.5,7.7c-0.2,0.3-0.4,0.5-0.6,0.8
	c-1.6,2.1-3.3,4.1-5,6.2c-1.2,1.4-2.4,2.8-3.7,4.2c-0.1,0.1-0.2,0.2-0.3,0.3c-2.6,2.8-5.2,5.6-8,8.3h0v39.9
	c-32.7,3-63.9,10.7-91.7,22.7c-1.9-4.3-3.7-8.6-5.2-13.1c-0.5-1.6-1-3.2-1.5-4.8v0c0,0,0.1,0,0.1,0c7.1-1.2,14.2-2.8,21.1-4.8
	c0.2,0,0.3-0.1,0.4-0.1c0.5-0.2,1.1-0.3,1.6-0.5c28.6-8.9,54.5-25.3,75.1-46.5c0.4-0.4,0.8-0.8,1.2-1.3c2.4-2.6,4.8-5.2,7.1-7.9
	c0.2-0.3,0.5-0.6,0.7-0.9c1-1.2,2-2.4,3-3.7c1.7-2.2,3.4-4.4,5-6.6c1.5-2,2.9-4.1,4.2-6.2c0,0,0-0.1,0.1-0.1c0.3-0.5,0.6-1,0.9-1.5
	c3.7-5.8,7-11.9,9.9-18.1c1.6-3.3,3-6.6,4.4-10c1.9-4.7,3.6-9.5,5.1-14.4c0.6-1.8,1.1-3.7,1.6-5.5V77.3z M129.7,96.5v18.1
	c-1.2,1.7-2.4,3.3-3.7,4.9V97.6L129.7,96.5z M126,88.9V59.8l3.7-1.1v29.1L126,88.9z M143.3,92.4c-2.6,5.1-5.5,10.1-8.6,14.9V95
	L143.3,92.4z M134.7,86.3V57.2l23.5-7.1c-2.3,11.2-5.8,22-10.2,32.2L134.7,86.3z M188.1,256.1h-9.4v-28.2h-5.2v-8h14.6V256.1z
	 M225.3,256.1h-29.1L211,240c2.1-2.3,4.1-5.6,4.1-8.9c0-2.3-1.6-4.7-4.1-4.7c-2.5,0-3.9,2-3.9,4.4c0,0.5,0,1,0.1,1.5h-10.4
	c0.3-8.3,5.6-13.9,14.1-13.9c7.6,0,14,5,14,12.9c0,5.2-2.2,8.2-5.8,11.6l-5.6,5.2h11.9V256.1z M273.9,206.5
	c-29-12.5-61.8-20.4-96.2-23.2v-45.9c27.5,28.4,63.7,46.6,102.8,51.8C278.6,195.2,276.5,200.9,273.9,206.5z M281.8,184.4
	c-39.9-5.1-76.8-24.3-104.1-54.2V77.7c5.5,19.4,15.5,37.5,29.5,52.6c20.5,22.2,47.7,36.5,77.4,40.8
	C283.8,175.6,282.9,180,281.8,184.4z M177.7,41.9V39c0-1.4-1.1-2.5-2.5-2.5c-1.4,0-2.5,1.1-2.5,2.5v2.9v141
	c-1.2-0.1-2.4-0.1-3.6-0.2V42.4v-3.9v-9.9c0-2.3-1.9-4.1-4.1-4.1c-2.3,0-4.1,1.9-4.1,4.1v4.8c-0.3,2.5-0.6,5-1,7.5L126,51.1v-9.3
	c0-2.3-1.9-4.1-4.1-4.1c-4.1,0-4.7,3.4-4.7,4.2c0,60.6-43.6,112.5-102.5,123.4c-0.6-5-0.9-10.1-0.9-15.3
	C13.8,74.9,74.9,13.8,150,13.8c75.1,0,136.2,61.1,136.2,136.2c0,5.5-0.3,10.9-1,16.2C224.4,157.4,177.7,104.1,177.7,41.9z"/>
</svg>
