<?xml version="1.0" encoding="utf-8"?>
<!-- Generator: Adobe Illustrator 18.1.1, SVG Export Plug-In . SVG Version: 6.00 Build 0)  -->
<svg version="1.1" id="Layer_1" xmlns="http://www.w3.org/2000/svg" xmlns:xlink="http://www.w3.org/1999/xlink" x="0px" y="0px"
	 viewBox="0 0 300 300" style="enable-background:new 0 0 300 300;" xml:space="preserve">
<style type="text/css">
	.st0{fill:#ED3224;}
	.st1{fill:#F18720;}
	.st2{fill:#65BBD7;}
	.st3{fill:#77C052;}
</style>
<g>
	<polygon class="st0" points="84.9,231 81.2,241.9 88.6,241.9 85,231 	"/>
	<polygon class="st0" points="212.6,240.8 220.7,240.8 220.7,227.6 220.6,227.6 	"/>
	<path class="st0" d="M150,0C67.2,0,0,67.2,0,150c0,82.8,67.2,150,150,150c82.8,0,150-67.2,150-150C300,67.2,232.8,0,150,0z
		 M190.7,122.7c2.8-2.7,6.7-4.3,10.9-4.3c2.9,0,5.7,0.8,8.2,2.3c0,0.2,0,0.5,0,0.7c0,2.3,0.3,4.5,0.8,6.7c0.2,1,1.2,1.7,2.2,1.7
		c0.2,0,0.3,0,0.5-0.1c1.2-0.3,2-1.5,1.7-2.7c-0.4-1.9-0.6-3.8-0.6-5.7c0-0.6,0-1.2,0.1-1.8c0.1-0.8,0.1-1.5,0.3-2.2
		c0-0.2,0.1-0.4,0.1-0.6c0.1-0.6,0.2-1.1,0.4-1.7c0-0.2,0.1-0.3,0.1-0.5c0.4-1.5,0.9-2.9,1.6-4.2c0-0.1,0.1-0.1,0.1-0.2
		c0.3-0.7,0.7-1.3,1.1-1.9c0,0,0,0,0,0c4.5-7.3,12.5-12.2,21.6-12.2c9.9,0,18.7,5.6,22.8,14.5c-3.7,2.8-6.6,6.5-8.3,11
		c-0.4,1.2,0.2,2.5,1.3,2.9c0.3,0.1,0.5,0.1,0.8,0.1c0.9,0,1.8-0.6,2.1-1.5c2.1-5.8,6.8-10.2,12.5-12c0,0,0,0,0.1,0
		c0.4-0.1,0.9-0.3,1.3-0.4c0.1,0,0.1,0,0.2,0c0.4-0.1,0.8-0.2,1.2-0.2c0.1,0,0.2,0,0.3-0.1c0.4-0.1,0.8-0.1,1.2-0.1
		c0.1,0,0.2,0,0.3,0c0.5,0,1-0.1,1.5-0.1c1.2,0,2.3,0.1,3.5,0.3c3.2,10.6,5.2,21.8,5.7,33.3h-95.3V122.7z M150,13.8
		c59.7,0,110.5,38.5,128.9,92c-0.6,0-1.3-0.1-1.9-0.1c-0.6,0-1.1,0-1.7,0.1c-0.1,0-0.3,0-0.4,0c-0.5,0-1,0.1-1.5,0.2
		c-0.1,0-0.2,0-0.2,0c-2.4,0.4-4.7,1.1-6.9,2.2c-5-10.1-15.3-16.6-26.7-16.6c-7.6,0-14.8,2.9-20.4,8.1c-1.8,1.7-3.4,3.6-4.7,5.6
		c0,0,0,0,0,0.1c-0.2,0.3-0.4,0.7-0.6,1c-0.1,0.3-0.3,0.5-0.5,0.8c-0.3,0.6-0.7,1.3-1,1.9c-0.1,0.2-0.2,0.5-0.3,0.7
		c-0.2,0.4-0.4,0.9-0.5,1.3c-0.1,0.3-0.2,0.6-0.3,0.9c-0.1,0.4-0.3,0.8-0.4,1.3c-0.1,0.3-0.2,0.6-0.2,0.9c-0.1,0.4-0.2,0.9-0.3,1.3
		c0,0.1-0.1,0.2-0.1,0.4c-2.7-1.3-5.7-1.9-8.7-1.9c-4,0-7.7,1.2-10.9,3.2v-10.4l1.7-2.2V98c-2.1-0.7-5-1.7-8.5-2.6
		c-3-0.8-6.7-1.6-11-2.3v5.7c5.7,1,10.4,2.2,14,3.3v1.2l-1.1,1.5c-5-1.5-10.8-2.8-16.7-3.7l1-1.4v-9.9c9.2,1.3,17.5,3.4,23.9,6.2
		c0.4,0.2,0.7,0.2,1.1,0.2c1.1,0,2.1-0.6,2.6-1.7c0.6-1.4,0-3.1-1.4-3.7c-11.6-5.1-28.4-8-46.2-8c-17.8,0-34.6,2.9-46.2,8
		c-1.4,0.6-2.1,2.3-1.4,3.7c0.6,1.4,2.3,2.1,3.7,1.4c6.5-2.8,14.7-4.9,23.9-6.2v9.9l1.7,2.2v49.7l-3.3,3.1v13.5h-2.8v-13.1
		c-3,0.5-5.6,1-7.9,1.6v11.4h-2.8V123c0.6-0.3,1.3-0.4,2-0.4c3,0,5.5,2.4,5.5,5.5v24.7l5.6-1v-32.9c0-3.6-2.9-6.5-6.5-6.5
		c-3.6,0-6.5,2.9-6.5,6.5v-13.4l-1.7-2.2V102c3.6-1.1,8.3-2.3,14-3.3v-5.7c-4.3,0.7-8.1,1.6-11.1,2.3c-3.5,0.9-6.4,1.8-8.5,2.6v5.9
		v0.6l1.7,2.2v10.4c-3.1-2-6.9-3.2-10.9-3.2c-3,0-6,0.7-8.7,1.9c0-0.1-0.1-0.2-0.1-0.3c-0.1-0.4-0.2-0.9-0.3-1.3
		c-0.1-0.3-0.1-0.6-0.2-0.9c-0.1-0.4-0.3-0.9-0.4-1.3c-0.1-0.3-0.2-0.6-0.3-0.9c-0.2-0.5-0.4-0.9-0.5-1.3c-0.1-0.2-0.2-0.5-0.3-0.7
		c-0.3-0.7-0.6-1.3-1-1.9c-0.1-0.3-0.3-0.5-0.4-0.8c-0.2-0.3-0.4-0.7-0.6-1c0,0,0,0,0-0.1c-1.3-2-2.9-3.9-4.7-5.6
		c-5.5-5.2-12.8-8.1-20.4-8.1c-11.4,0-21.7,6.4-26.7,16.6c-2.2-1.1-4.5-1.8-6.9-2.2c-0.1,0-0.2,0-0.2,0c-0.5-0.1-1-0.1-1.5-0.2
		c-0.1,0-0.3,0-0.4,0c-0.6,0-1.1-0.1-1.7-0.1c-0.6,0-1.3,0-1.9,0.1C39.5,52.3,90.3,13.8,150,13.8z M177.7,152.9v-24.8
		c0-3,2.4-5.5,5.5-5.5c0.7,0,1.4,0.1,2,0.4v45.2h-2.8v-11.4c-2.3-0.6-4.9-1.1-7.9-1.6v13.1h-2.8v-13.5l-3.3-3.1v-26.3v-5.5
		c0-5.7,4.6-10.2,10.2-10.2c2.5,0,4.8,0.9,6.5,2.4v4.2c-1.3-2.3-3.7-3.9-6.5-3.9c-4.1,0-7.5,3.3-7.5,7.5v32L177.7,152.9z M150,153.2
		c-3.5,0-6.9,0.1-10,0.3v14.7h-2.8v-42.3h0v-8.2c0-7.1,5.7-12.8,12.8-12.8c7.1,0,12.8,5.7,12.8,12.8v37.8v12.7H160v-14.7
		C156.9,153.3,153.6,153.2,150,153.2z M137.2,100.5l-1.7-2.2v-9.2c4.7-0.4,9.5-0.7,14.5-0.7s9.8,0.2,14.5,0.7v9.2l-1.4,1.9
		C153.6,99.3,144.2,99.3,137.2,100.5z M19.6,110.5c1.1-0.2,2.3-0.3,3.4-0.3c0.5,0,1,0,1.5,0.1c0.1,0,0.2,0,0.3,0
		c0.4,0,0.8,0.1,1.2,0.1c0.1,0,0.2,0,0.3,0.1c0.4,0.1,0.8,0.1,1.2,0.2c0.1,0,0.1,0,0.2,0c0.4,0.1,0.9,0.2,1.3,0.4c0,0,0,0,0.1,0
		c5.7,1.8,10.4,6.2,12.5,12c0.3,0.9,1.2,1.5,2.1,1.5c0.3,0,0.5,0,0.8-0.1c1.2-0.4,1.8-1.7,1.3-2.9c-1.7-4.5-4.6-8.3-8.3-11
		c4.2-8.8,13-14.5,22.8-14.5c9.1,0,17.2,4.9,21.6,12.2c0,0,0,0,0,0c0.4,0.6,0.7,1.3,1.1,1.9c0,0.1,0.1,0.1,0.1,0.2
		c0.6,1.3,1.2,2.7,1.6,4.2c0,0.2,0.1,0.3,0.1,0.5c0.1,0.6,0.3,1.1,0.4,1.7c0,0.2,0.1,0.4,0.1,0.6c0.1,0.7,0.2,1.5,0.3,2.2
		c0,0.6,0.1,1.2,0.1,1.8c0,1.9-0.2,3.8-0.6,5.7c-0.3,1.2,0.5,2.4,1.7,2.7c0.2,0,0.3,0.1,0.5,0.1c1,0,2-0.7,2.2-1.7
		c0.5-2.2,0.8-4.4,0.8-6.7c0-0.2,0-0.5,0-0.7c2.5-1.5,5.3-2.3,8.2-2.3c4.2,0,8,1.7,10.9,4.3v21.1H14
		C14.5,132.3,16.4,121.2,19.6,110.5z M93.2,254.7l-2.2-6H78.8l-2.4,6h-9.4l13.2-34.2h9.7l12.9,34.2H93.2z M139,254.7l-2.5-19.7h-0.1
		l-8.2,19.7h-3.5l-7.9-19.7h-0.1l-2.9,19.7H105l5.8-34.2h8.8l6.9,18.3l7.4-18.3h8.9l5.2,34.2H139z M165.3,261.1
		c0,1.4-1.1,2.5-2.5,2.5c-1.4,0-2.5-1.1-2.5-2.5V214c0-1.4,1.1-2.5,2.5-2.5c1.4,0,2.5,1.1,2.5,2.5V261.1z M192.8,254.7h-8.9V228H179
		v-7.5h13.8V254.7z M233.1,247.6h-4.1v7.1h-8.3v-7.1H204v-5.7l13.2-21.5h11.7v20.3h4.1V247.6z M271.7,211.3l-0.9-0.2v-16.5h-10.2
		v8.9h-7.2v-20.7h-15.8v14.5h-5.3V188h-8.6v10.2h-6.7l-0.7-0.2v-24h-13.8v16.8H194v-14.3H106v14.3h-8.1V174H84.1v23.9l-1,0.2h-6.4
		V188H68v9.3h-5.3v-14.5H46.8v20.7h-7.2v-8.9H29.4V211l-1.1,0.3C19,192.8,13.8,172,13.8,150c0-0.5,0-1.1,0-1.6h95.4v9.3l-3.3,1.9
		v8.7h-2.4c-1.5,0-2.8,1.2-2.8,2.8s1.2,2.8,2.8,2.8h93c1.5,0,2.8-1.2,2.8-2.8s-1.2-2.8-2.8-2.8H194v-8.7l-3.3-1.9v-9.3h95.4
		c0,0.5,0,1.1,0,1.6C286.2,172,281,192.8,271.7,211.3z"/>
	<path class="st0" d="M150,80c3.6,0,7.1,0.1,10.5,0.3c0.6,0,1.2,0.1,1.9,0.1c0.2,0,0.4,0,0.6,0c1.3,0.1,2.5,0.2,3.7,0.4
		c0,0,0,0,0.1,0c8.8,1,16.8,2.7,23.4,4.9h0c-3.2-15.5-15.2-27.7-30.4-31.4V40.2c-3.1-0.7-6.3-1.1-9.7-1.1c-3.3,0-6.6,0.4-9.7,1.1
		v14.2c-15.3,3.7-27.2,16-30.4,31.4C120.4,82.2,134.5,80,150,80L150,80z M151.9,44.9c0-1.8,1.9-3.2,1.9-3.2s1.9,1.4,1.9,3.2
		c0,1.3,0,6.3,0,8.7c-0.4-0.1-0.8-0.1-1.2-0.2c-0.9-0.1-1.7-0.2-2.6-0.2C151.9,50.8,151.9,46.2,151.9,44.9z M144.2,44.9
		c0-1.8,1.9-3.2,1.9-3.2s1.9,1.4,1.9,3.2c0,1.3,0,5.8,0,8.3c-1.3,0.1-2.6,0.2-3.9,0.4C144.2,51.2,144.2,46.3,144.2,44.9z
		 M127.5,66.9c6.3-5.2,14.3-8,22.5-8h0v15.6h0c-11.1,0-21.8,1.1-31.3,3.2C120.9,73.5,123.9,69.9,127.5,66.9z"/>
	<path class="st0" d="M140.3,37.3c0.2,0,0.4,0,0.6-0.1c6-1.3,12.2-1.3,18.1,0c1.5,0.3,3-0.6,3.3-2.1c0.3-1.5-0.6-3-2.1-3.3
		c-6.7-1.5-13.8-1.5-20.5,0c-1.5,0.3-2.5,1.8-2.1,3.3C137.9,36.4,139.1,37.3,140.3,37.3z"/>
	<path class="st0" d="M159,28.7c-0.6-4.4-4.4-7.9-9-7.9c-4.6,0-8.4,3.4-9,7.9C146.9,27.6,153.1,27.6,159,28.7z"/>
	<path class="st0" d="M138.3,91.7l0,5.6c3.7-0.3,7.6-0.5,11.7-0.5c4.1,0,8,0.2,11.7,0.5l0-5.6c-3.7-0.3-7.6-0.5-11.7-0.5
		C145.9,91.2,142,91.4,138.3,91.7z"/>
	<path class="st0" d="M150,107.6c-5.5,0-10,4.5-10,10v32.9l4.1-0.2v-16.1c0-3.3,2.6-5.9,5.9-5.9c3.3,0,5.9,2.6,5.9,5.9v16.1l4.1,0.2
		v-32.9C160,112.1,155.5,107.6,150,107.6z"/>
</g>
</svg>
