<?xml version="1.0" encoding="UTF-8" standalone="no"?><!DOCTYPE svg PUBLIC "-//W3C//DTD SVG 1.1//EN" "http://www.w3.org/Graphics/SVG/1.1/DTD/svg11.dtd"><svg width="100%" height="100%" viewBox="0 0 300 300" version="1.1" xmlns="http://www.w3.org/2000/svg" xmlns:xlink="http://www.w3.org/1999/xlink" xml:space="preserve" style="fill-rule:evenodd;clip-rule:evenodd;stroke-linejoin:round;stroke-miterlimit:1.41421;"><g><g><path d="M126.153,94.452c1.306,0 2.365,-1.06 2.365,-2.365l0,-3.503c0,-1.306 -1.059,-2.365 -2.365,-2.365c-1.306,0 -2.366,1.059 -2.366,2.365l0,3.503c0,1.305 1.06,2.365 2.366,2.365" style="fill:#fff;fill-rule:nonzero;"/><path d="M114.288,95.242l2.688,2.244c0.442,0.368 0.981,0.549 1.514,0.549c0.677,0 1.349,-0.289 1.816,-0.849c0.838,-1.003 0.704,-2.493 -0.298,-3.331l-2.691,-2.245c-1.002,-0.837 -2.493,-0.702 -3.331,0.299c-0.837,1.004 -0.702,2.496 0.302,3.333" style="fill:#fff;fill-rule:nonzero;"/><path d="M112.863,106.716c0.133,0 0.267,-0.011 0.405,-0.034l3.452,-0.595c1.284,-0.22 2.15,-1.443 1.929,-2.73c-0.222,-1.288 -1.446,-2.154 -2.733,-1.93l-3.452,0.594c-1.287,0.22 -2.151,1.444 -1.93,2.731c0.199,1.152 1.198,1.964 2.329,1.964" style="fill:#fff;fill-rule:nonzero;"/><path d="M117.785,107.992l-2.316,2.63c-0.862,0.981 -0.766,2.476 0.214,3.338c0.449,0.397 1.007,0.59 1.563,0.59c0.655,0 1.307,-0.27 1.776,-0.804l2.312,-2.626c0.865,-0.981 0.766,-2.478 -0.211,-3.339c-0.981,-0.864 -2.476,-0.77 -3.338,0.211" style="fill:#fff;fill-rule:nonzero;"/><path d="M126.153,117.912c1.306,0 2.365,-1.06 2.365,-2.366l0,-3.502c0,-1.306 -1.059,-2.365 -2.365,-2.365c-1.306,0 -2.366,1.059 -2.366,2.365l0,3.502c0,1.306 1.06,2.366 2.366,2.366" style="fill:#fff;fill-rule:nonzero;"/><path d="M138.017,108.888l-2.69,-2.243c-1.003,-0.838 -2.493,-0.704 -3.33,0.298c-0.838,1.005 -0.704,2.495 0.3,3.333l2.689,2.245c0.441,0.366 0.98,0.549 1.514,0.549c0.677,0 1.348,-0.291 1.816,-0.851c0.838,-1.002 0.703,-2.493 -0.299,-3.331" style="fill:#fff;fill-rule:nonzero;"/><path d="M133.656,100.774c0.197,1.153 1.198,1.964 2.327,1.964c0.134,0 0.269,-0.011 0.404,-0.034l3.451,-0.595c1.288,-0.22 2.152,-1.443 1.93,-2.733c-0.219,-1.284 -1.443,-2.151 -2.73,-1.929l-3.452,0.594c-1.287,0.223 -2.152,1.446 -1.93,2.733" style="fill:#fff;fill-rule:nonzero;"/><path d="M131.182,96.35c0.45,0.394 1.007,0.59 1.562,0.59c0.656,0 1.309,-0.274 1.777,-0.804l2.313,-2.628c0.862,-0.983 0.768,-2.477 -0.214,-3.337c-0.981,-0.865 -2.475,-0.77 -3.339,0.211l-2.312,2.629c-0.862,0.981 -0.77,2.474 0.213,3.339" style="fill:#fff;fill-rule:nonzero;"/><path d="M251.339,197.048l0,-40.293c0,-0.987 -0.469,-1.916 -1.259,-2.509l-28.486,-21.253c-0.032,-0.024 -0.066,-0.045 -0.099,-0.066c-0.014,-0.014 -0.033,-0.026 -0.052,-0.037c-0.082,-0.055 -0.167,-0.105 -0.253,-0.153c-0.019,-0.008 -0.038,-0.016 -0.053,-0.027c-0.083,-0.039 -0.164,-0.077 -0.246,-0.111l-0.04,-0.016c-0.093,-0.037 -0.188,-0.066 -0.28,-0.092c-0.024,-0.005 -0.046,-0.014 -0.066,-0.019c-0.095,-0.023 -0.194,-0.045 -0.288,-0.061c-0.003,-0.003 -0.006,-0.003 -0.009,-0.003c-0.1,-0.014 -0.197,-0.023 -0.299,-0.028c-0.023,-0.003 -0.044,-0.003 -0.067,-0.005c-0.099,-0.003 -0.199,-0.003 -0.297,0.002c-0.016,0 -0.029,0.003 -0.044,0.003c-0.094,0.008 -0.186,0.019 -0.275,0.034c-0.013,0 -0.024,0.003 -0.035,0.003l-16.489,2.839l0,-35.09c0,-0.988 -0.469,-1.919 -1.262,-2.508l-8.61,-6.427l0,-6.719c0,-0.99 -0.469,-1.917 -1.262,-2.509l-35.62,-26.575c-0.032,-0.025 -0.066,-0.046 -0.099,-0.067c-0.014,-0.013 -0.033,-0.024 -0.05,-0.038c-0.084,-0.055 -0.169,-0.105 -0.255,-0.15c-0.017,-0.011 -0.034,-0.019 -0.053,-0.025c-0.08,-0.044 -0.161,-0.08 -0.246,-0.114l-0.04,-0.016c-0.092,-0.037 -0.185,-0.067 -0.28,-0.092c-0.022,-0.006 -0.042,-0.011 -0.066,-0.017c-0.092,-0.027 -0.191,-0.047 -0.288,-0.063l-0.006,0c-0.1,-0.016 -0.2,-0.027 -0.298,-0.031c-0.024,-0.003 -0.046,-0.003 -0.069,-0.006c-0.097,-0.002 -0.198,-0.002 -0.299,0.003c-0.013,0 -0.025,0.003 -0.042,0.003c-0.093,0.006 -0.185,0.017 -0.277,0.033c-0.011,0 -0.024,0.003 -0.035,0.003l-2.658,0.458l0,-10.147l6.908,0l0,4.593c0,0.928 0.754,1.678 1.678,1.678l11.286,0c0.929,0 1.681,-0.75 1.681,-1.678l0,-13.378c0,-0.929 -0.752,-1.68 -1.681,-1.68l-6.078,0l0,-4.593c0,-0.928 -0.751,-1.678 -1.678,-1.678l-14.606,0c-1.375,0 -2.49,1.115 -2.49,2.489l0,25.25l-41.848,7.202c-1.5,0.259 -2.601,1.562 -2.601,3.084l0,9.792l-7.271,1.253c-1.5,0.258 -2.601,1.561 -2.601,3.086l0,74.179l-40.325,6.938c-1.503,0.259 -2.6,1.562 -2.6,3.087l0,32.539c-9.862,3.341 -17.511,6.574 -22.707,8.973c-7.971,-17.542 -12.335,-37.069 -12.137,-57.64c0.722,-75.028 61.624,-135.1 136.655,-134.845c74.997,0.253 135.718,61.128 135.718,136.188c0,19.937 -4.287,38.874 -11.984,55.94c-5.195,-2.368 -12.903,-5.574 -22.867,-8.893M235.039,250.226c-2.754,2.225 -6.121,3.339 -10.105,3.339c-3.896,0 -7.044,-0.952 -9.446,-2.856c-1.345,-1.112 -2.423,-2.482 -3.23,-4.107c-0.806,-1.625 -1.207,-3.288 -1.207,-4.986c0,-4.159 1.773,-8.554 5.317,-13.182l7.115,-9.314l9.756,0l-9.404,11.204l0.09,0.087c1.522,-0.672 3.058,-1.01 4.611,-1.01c3.136,0 5.691,1.15 7.668,3.45c1.977,2.299 2.966,5.03 2.966,8.193c0,3.896 -1.377,6.956 -4.131,9.182M208.925,153.339c-1.373,0 -2.49,1.115 -2.49,2.493l0,30.085c-1.905,-0.325 -3.842,-0.636 -5.812,-0.935l0,-27.295c0,-1.375 -1.115,-2.49 -2.489,-2.49c-1.377,0 -2.492,1.115 -2.492,2.49l0,26.579c-1.908,-0.26 -3.849,-0.505 -5.813,-0.737l0,-23.984c0,-1.375 -1.115,-2.49 -2.492,-2.49c-1.375,0 -2.49,1.115 -2.49,2.49l0,23.436c-1.914,-0.198 -3.85,-0.381 -5.812,-0.547l0,-21.031c0,-1.373 -1.115,-2.49 -2.49,-2.49c-1.377,0 -2.492,1.117 -2.492,2.49l0,20.643c-1.708,-0.12 -3.43,-0.228 -5.173,-0.323l0,-34.296l47.71,-8.209l0,48.595c-1.694,-0.344 -3.42,-0.679 -5.172,-1.007l0,-30.974c0,-1.378 -1.115,-2.493 -2.493,-2.493M203.84,252.248l-8.611,0l0,-25.834l-4.745,0l0,-7.294l13.356,0l0,33.128ZM177.196,258.432c0,1.312 -1.063,2.377 -2.377,2.377c-1.311,0 -2.376,-1.065 -2.376,-2.377l0,-44.178c0,-1.314 1.065,-2.376 2.376,-2.376c1.314,0 2.377,1.062 2.377,2.376l0,44.178ZM107.72,75.166l0,-6.077l43.227,-7.438l0,6.076l-43.227,7.439ZM155.458,181.25c-1.805,-0.029 -3.622,-0.045 -5.457,-0.045c-1.567,0 -3.121,0.014 -4.668,0.034l0,-54.981c0,-1.376 -1.115,-2.489 -2.49,-2.489c-1.373,0 -2.49,1.113 -2.49,2.489l0,55.087c-1.958,0.055 -3.896,0.127 -5.812,0.215l0,-53.445c0,-1.375 -1.115,-2.49 -2.491,-2.49c-1.375,0 -2.49,1.115 -2.49,2.49l0,53.709c-1.96,0.119 -3.899,0.253 -5.815,0.402l0,-52.253c0,-1.375 -1.112,-2.49 -2.49,-2.49c-1.375,0 -2.49,1.115 -2.49,2.49l0,52.68c-1.964,0.183 -3.901,0.383 -5.815,0.596l0,-51.418c0,-1.375 -1.112,-2.49 -2.49,-2.49c-1.373,0 -2.488,1.115 -2.488,2.49l0,52.009c-3.463,0.441 -6.838,0.926 -10.124,1.449l0,-102.07l57.61,-9.914l0,107.945ZM154.661,246.019l0,6.887l-8.612,0l-15.773,-20.296l-0.087,0l0,20.296l-8.612,0l0,-33.128l8.612,0l15.774,20.254l0.086,0l0,-20.254l8.612,0l0,26.241ZM108.713,252.906l-2.15,-5.754l-11.865,0l-2.283,5.754l-9.14,0l12.742,-33.128l9.401,0l12.478,33.128l-9.183,0ZM84.176,175.195c-1.378,0 -2.493,1.116 -2.493,2.489l0,10.607c-1.979,0.423 -3.917,0.856 -5.812,1.298l0,-10.047c0,-1.376 -1.115,-2.491 -2.493,-2.491c-1.373,0 -2.49,1.115 -2.49,2.491l0,11.252c-1.986,0.5 -3.927,1.01 -5.812,1.523l0,-10.917c0,-1.376 -1.115,-2.491 -2.488,-2.491c-1.378,0 -2.49,1.115 -2.49,2.491l0,12.323c-1.78,0.518 -3.502,1.04 -5.176,1.564l0,-27.863l36.664,-6.309l0,25.234c-1.664,0.298 -3.306,0.608 -4.921,0.924l0,-9.589c0,-1.373 -1.115,-2.489 -2.489,-2.489M67.239,252.906l-13.926,-33.128l9.356,0l7.998,20.124l8.041,-20.124l9.359,0l-14.149,33.128l-6.679,0ZM150.001,0c-82.845,0 -150.001,67.158 -150.001,150.001c0,82.841 67.156,149.999 150.001,149.999c82.841,0 149.999,-67.158 149.999,-149.999c0,-82.843 -67.158,-150.001 -149.999,-150.001" style="fill:#fff;fill-rule:nonzero;"/><path d="M224.89,235.903c-1.494,0 -2.776,0.529 -3.844,1.584c-1.07,1.054 -1.603,2.329 -1.603,3.821c0,1.523 0.533,2.82 1.603,3.888c1.068,1.07 2.35,1.605 3.844,1.605c1.495,0 2.753,-0.535 3.779,-1.605c1.023,-1.068 1.539,-2.365 1.539,-3.888c0,-1.492 -0.516,-2.767 -1.539,-3.821c-1.026,-1.055 -2.284,-1.584 -3.779,-1.584" style="fill:#fff;fill-rule:nonzero;"/><path d="M100.629,230.017l-3.558,10.543l7.16,0l-3.513,-10.543l-0.089,0Z" style="fill:#fff;fill-rule:nonzero;"/></g></g></svg>