<?xml version="1.0" encoding="utf-8"?>
<svg version="1.1" id="Layer_1" xmlns="http://www.w3.org/2000/svg" xmlns:xlink="http://www.w3.org/1999/xlink" x="0px" y="0px"
	 viewBox="0 0 500 361" style="enable-background:new 0 0 500 361;" xml:space="preserve">
<g style="fill: #515151;">
	<path d="M288.32,311.18c0.24-0.01,0.54-0.06,0.91-0.14c0.36-0.08,0.64-0.19,0.82-0.34c0.18-0.14,0.34-0.36,0.48-0.66
		c0.13-0.29,0.2-0.65,0.2-1.1c0-0.46-0.06-0.83-0.19-1.13c-0.13-0.3-0.28-0.53-0.47-0.7c-0.17-0.16-0.44-0.28-0.79-0.35
		c-0.35-0.07-0.65-0.11-0.9-0.13c-0.26-0.02-0.61-0.02-1.09-0.02h-0.8v4.6h0.8C287.75,311.19,288.09,311.19,288.32,311.18z"/>
	<path d="M267.43,317.13c1.44,0,2.69-0.52,3.7-1.57c1-1.05,1.51-2.36,1.51-3.93c0-1.28-0.51-2.42-1.53-3.4
		c-1.03-0.98-2.25-1.46-3.67-1.46c-1.42,0-2.65,0.48-3.66,1.46c-1.03,0.98-1.54,2.12-1.54,3.4c0,1.57,0.49,2.87,1.52,3.93
		C264.76,316.6,265.98,317.13,267.43,317.13z"/>
	<path d="M232.49,306.77c-1.4,0-2.64,0.48-3.66,1.46c-1.03,0.98-1.55,2.12-1.55,3.4c0,1.57,0.51,2.87,1.53,3.93
		c1.01,1.05,2.22,1.57,3.67,1.57c1.45,0,2.69-0.52,3.7-1.57c1.01-1.05,1.52-2.36,1.52-3.93c0-1.28-0.51-2.42-1.54-3.4
		C235.14,307.25,233.91,306.77,232.49,306.77z"/>
	<path d="M207.78,102.91l-2.47-7.83l-10.78-34.12l-5.84-18.5l21.86-5.9l22.82,72.26l8.2,1.9
		c1.29,0.29,2.98,0.48,4.79,0.61l-0.04-88.97c0-1.93,1.56-3.49,3.49-3.5c1.93,0,3.49,1.57,3.5,3.49l0.03,88.97
		c1.85-0.12,3.59-0.31,4.9-0.61l8.1-1.87l22.9-72.27l21.88,5.89l-19.15,60.46L337,92.52l-9.38-9.38l4.71-14.87l-20.3-5.46L320,37.63
		l-28.65-7.7l5.57-17.6L249.83-0.33l-46.94,12.66l5.56,17.59l-28.62,7.72l7.95,25.16l-20.28,5.47l3.71,11.75l-11.73,11.74
		L207.78,102.91z"/>
	<path d="M246.42,270.11l-0.06-151.79c-2.32-0.14-4.55-0.37-6.36-0.79L40.98,71.51c-5.45-1.26-14.38-3.32-19.82-4.58
		L9.82,64.31c-0.75-0.17-1.48-0.26-2.17-0.26c-4.41,0-7.74,3.31-7.74,8.14v11.64c0,5.59,0,14.75,0,20.34v180.1
		c0,5.6,0,14.75,0,20.35v11.63c0,4.83,3.32,8.13,7.74,8.13c0.69,0,1.42-0.08,2.17-0.25l11.34-2.62c5.44-1.26,14.37-3.32,19.82-4.58
		L240,270.9C241.83,270.47,244.07,270.25,246.42,270.11z M56.73,284.86l-30.9,7.58V95.99l9.97,2.46V278.5l20.93-4.6V284.86z
		 M113.05,262.92l-11.33,11.88l-19.7,5.07l-11.33-7.89V118.08l11.06-9.33l20.24,4.79l11.07,12.74V262.92z M174.87,151.6l-9.98-2.32
		v-7.08l-4.84-4.89l-12.85-3.28l-4.74,3v47.15l5.06,5.05h13.88h2.07l10.89,10.89v50.85l-11.06,9.7l-20.33,4.66L132,255.09V243.1
		l9.97-3.09v8.67l4.84,4.4l12.86-3.25l4.74-5.49v-40.08l-5.06-5.07h-13.88h-2.07L132.5,188.3v-55.9l11.06-9.33l20.33,4.78
		l10.98,9.93V151.6z M222.22,151.28l-11.47-2.25v100.43l-9.97,2.49V146.71l-11.46-2.75v-9.97l32.9,7.32V151.28z"/>
	<polygon points="85.39,119.71 80.65,123.71 80.65,264.29 85.15,267.42 98.59,264.34 103.09,259.22 103.09,128.5
		98.34,123.01 	"/>
	<path d="M249.91,276.93c-3.2,0-6.23,0.28-8.33,0.77l-110.52,25.55l111.22,54.82c4.91,2.43,12.97,2.46,17.91,0.06
		l111.78-54.14L258.25,277.7C256.14,277.2,253.12,276.93,249.91,276.93z M218.45,308.91c-0.49-0.65-1.11-1.15-1.85-1.5
		c-0.74-0.36-1.52-0.53-2.36-0.53c-1.46,0-2.63,0.49-3.54,1.47c-0.91,0.98-1.37,2.19-1.37,3.65c0,1.46,0.46,2.66,1.38,3.6
		c0.92,0.94,2.13,1.4,3.61,1.4c0.77,0,1.54-0.17,2.27-0.53c0.74-0.34,1.36-0.82,1.86-1.42v5.74c-1.86,0.57-3.28,0.86-4.23,0.86
		c-2.63,0-4.93-0.9-6.91-2.71c-1.97-1.78-2.96-4.09-2.96-6.96c0-2.65,0.9-4.9,2.71-6.75c0.9-0.93,1.98-1.67,3.23-2.2
		c1.23-0.52,2.49-0.79,3.79-0.79c1.42,0,2.87,0.3,4.38,0.93V308.91z M239.82,318.92c-1.92,1.91-4.36,2.85-7.33,2.85
		c-2.95,0-5.4-0.94-7.32-2.85c-1.9-1.89-2.88-4.34-2.88-7.32c0-1.81,0.49-3.45,1.45-4.91c0.97-1.46,2.22-2.6,3.77-3.38
		c1.54-0.79,3.21-1.19,4.98-1.19c1.78,0,3.44,0.4,4.99,1.19c1.54,0.78,2.81,1.92,3.77,3.38c0.95,1.46,1.44,3.1,1.44,4.91
		C242.69,314.58,241.73,317.03,239.82,318.92z M253.47,315.15h-6.99v-3.67h6.99V315.15z M281.69,302.73h7.32
		c2.08,0,3.72,0.51,4.91,1.51c1.21,1,1.8,2.52,1.8,4.56c0,4.17-2.18,6.26-6.52,6.26h-2.71v6.11h-4.79V302.73z M262.44,303.31
		c1.54-0.79,3.22-1.19,4.99-1.19s3.44,0.4,4.99,1.19c1.54,0.78,2.79,1.92,3.76,3.38c0.97,1.46,1.45,3.1,1.45,4.91
		c0,2.98-0.96,5.43-2.88,7.32c-1.92,1.91-4.36,2.85-7.32,2.85c-2.97,0-5.41-0.94-7.32-2.85c-1.92-1.89-2.87-4.34-2.87-7.32
		c0-1.81,0.48-3.45,1.44-4.91C259.64,305.23,260.89,304.09,262.44,303.31z"/>
	<path d="M492.17,64.05c-0.71,0-1.43,0.08-2.17,0.26l-11.35,2.62c-5.45,1.26-14.37,3.32-19.82,4.58l-199.01,46.02
		c-1.85,0.42-4.11,0.65-6.48,0.79l0.05,151.79c2.35,0.14,4.6,0.37,6.43,0.79l199.01,46.02c5.45,1.26,14.36,3.32,19.82,4.58
		l11.35,2.62c0.74,0.17,1.47,0.25,2.17,0.25c4.41,0,7.74-3.3,7.74-8.13v-11.63c0-5.6,0-14.75,0-20.35v-180.1c0-5.59,0-14.74,0-20.34
		V72.18C499.92,67.35,496.59,64.05,492.17,64.05z M306.22,145.46l-11.47,2.5v102.51l-9.97-1.99v-98.2l-11.46,2.49V142.3l32.9-7.31
		V145.46z M346.09,196.67v65.62l-9.97-1.99v-63.67l-18.85-64.05l10.28-2.73l13.57,44.55l13.54-50.53l11.28-2.76L346.09,196.67z
		 M421.86,190.44l-10.98,9.94h-21.93v72.1l-9.96-2.3v-152.3l31.9-7.18l10.98,9.94V190.44z M475.18,292.44v-0.01l-36.89-8.53V104.42
		l36.89-8.44v9.97l-26.92,6.46v78h19.44v9.97h-19.44v74.42l26.92,6.14v11.48l0.04,0.01H475.18z"/>
	<polygon points="388.95,126.1 388.95,190.41 407.04,190.41 411.89,186.02 411.89,126.36 407.04,121.92 	"/>
</g>
</svg>
